<?xml version="1.0" encoding="UTF-8" standalone="no"?>
<!DOCTYPE svg PUBLIC "-//W3C//DTD SVG 1.1//EN" "http://www.w3.org/Graphics/SVG/1.1/DTD/svg11.dtd">
<svg width="100%" height="100%" viewBox="0 0 4000 4000" version="1.1" xmlns="http://www.w3.org/2000/svg" xmlns:xlink="http://www.w3.org/1999/xlink" xml:space="preserve" xmlns:serif="http://www.serif.com/" style="fill-rule:evenodd;clip-rule:evenodd;stroke-linejoin:round;stroke-miterlimit:2;">
    <g>
        <path d="M3250,2226.06L750,2226.06L750,3383.06C750,3438.25 786.188,3486.94 839.063,3502.81C1090.25,3578.13 1796.63,3790.06 1964.06,3840.31C1987.5,3847.31 2012.5,3847.31 2035.94,3840.31C2203.38,3790.06 2909.75,3578.13 3160.94,3502.81C3213.81,3486.94 3250,3438.25 3250,3383.06L3250,2226.06Z" style="fill:rgb(202,220,240);"/>
        <path d="M3250,2226.06L2000,2226.06C2000,2226.06 1987.88,3845.56 2000,3845.56C2012.13,3845.56 2024.19,3843.81 2035.94,3840.31C2203.38,3790.06 2909.75,3578.13 3160.94,3502.81C3213.81,3486.94 3250,3438.25 3250,3383.06L3250,2226.06Z" style="fill:rgb(164,187,219);"/>
        <path d="M2000,2631.63L750,2226.06C750,2226.06 530.813,2551.06 432.813,2696.31C421.813,2712.63 419.125,2733.06 425.5,2751.63C431.938,2770.19 446.625,2784.63 465.313,2790.75C702.75,2867.88 1405.63,3096.25 1590,3156.13C1616.44,3164.75 1645.44,3154.81 1661.06,3131.75C1744.87,3008.06 2000,2631.63 2000,2631.63Z" style="fill:rgb(233,243,252);"/>
        <path d="M3250,2226.06L2000,2631.63C2000,2631.63 2255.13,3008.06 2338.94,3131.75C2354.56,3154.81 2383.56,3164.75 2410,3156.13C2594.37,3096.25 3297.25,2867.88 3534.69,2790.75C3553.38,2784.63 3568.06,2770.19 3574.5,2751.63C3580.88,2733.06 3578.19,2712.63 3567.19,2696.31C3469.19,2551.06 3250,2226.06 3250,2226.06Z" style="fill:rgb(233,243,252);"/>
        <path d="M1697.44,1374.13C1681.81,1351.19 1652.87,1341.25 1626.44,1349.88C1442.19,1409.69 739.125,1638.13 501.688,1715.31C483,1721.38 468.25,1735.81 461.875,1754.38C455.5,1772.94 458.188,1793.44 469.188,1809.69C559.438,1943.56 750,2226.06 750,2226.06L2000,1819.13C2000,1819.13 1775.5,1488.94 1697.44,1374.13Z" style="fill:rgb(202,220,240);"/>
        <path d="M3530.81,1809.69C3541.81,1793.44 3544.5,1772.94 3538.13,1754.38C3531.75,1735.81 3517,1721.38 3498.31,1715.31C3260.88,1638.13 2557.81,1409.69 2373.56,1349.88C2347.13,1341.25 2318.19,1351.19 2302.56,1374.13C2224.5,1488.94 2000,1819.13 2000,1819.13L3250,2226.06C3250,2226.06 3440.56,1943.56 3530.81,1809.69Z" style="fill:rgb(233,243,252);"/>
        <path d="M3250,2226.06L2000,1819.13L750,2226.06L2000,2631.63L3250,2226.06Z" style="fill:rgb(202,220,240);"/>
        <path d="M2000,2631.63L2000,1819.13L750,2226.06L2000,2631.63Z" style="fill:rgb(164,187,219);"/>
        <path d="M1748.88,1998.63C1722.88,1981.62 1699.44,1963.44 1678.63,1944.38C1653.25,1921.06 1613.69,1922.75 1590.31,1948.19C1567,1973.56 1568.69,2013.12 1594.13,2036.44C1619.69,2059.94 1648.5,2082.31 1680.5,2103.25C1709.38,2122.13 1748.12,2114 1767,2085.13C1785.87,2056.25 1777.75,2017.5 1748.88,1998.63Z" style="fill:rgb(52,123,250);"/>
        <path d="M1554.12,1806.63C1535.56,1781.44 1519.88,1756.13 1507,1730.81C1491.38,1700.06 1453.69,1687.81 1422.94,1703.44C1392.19,1719.06 1379.94,1756.75 1395.56,1787.5C1411.44,1818.63 1430.69,1849.81 1453.5,1880.75C1473.94,1908.5 1513.06,1914.44 1540.87,1894C1568.63,1873.5 1574.56,1834.38 1554.12,1806.63Z" style="fill:rgb(52,123,250);"/>
        <path d="M1462.75,1551.56C1463.38,1526.38 1467.06,1501.94 1473.81,1478.5C1483.31,1445.38 1464.13,1410.69 1430.94,1401.19C1397.81,1391.69 1363.13,1410.88 1353.63,1444.06C1344.06,1477.56 1338.69,1512.5 1337.75,1548.44C1336.94,1582.94 1364.19,1611.63 1398.69,1612.44C1433.19,1613.31 1461.87,1586.06 1462.75,1551.56Z" style="fill:rgb(52,123,250);"/>
        <path d="M1558.87,1342.81C1574.94,1327.94 1592.94,1314.19 1612.63,1301.75C1641.81,1283.31 1650.56,1244.69 1632.19,1215.56C1613.75,1186.38 1575.13,1177.62 1545.94,1196C1519.5,1212.69 1495.5,1231.13 1473.94,1251.13C1448.63,1274.56 1447.12,1314.12 1470.56,1339.44C1494,1364.75 1533.56,1366.25 1558.87,1342.81Z" style="fill:rgb(52,123,250);"/>
        <path d="M1791.31,1235C1822.75,1229.19 1856.06,1225.44 1891.19,1224C1925.69,1222.5 1952.44,1193.31 1951,1158.88C1949.56,1124.44 1920.38,1097.63 1885.88,1099.06C1844.63,1100.81 1805.5,1105.25 1768.56,1112.06C1734.69,1118.37 1712.19,1151 1718.5,1184.88C1724.75,1218.81 1757.38,1241.25 1791.31,1235Z" style="fill:rgb(52,123,250);"/>
        <path d="M2117.06,1231.31C2170.38,1231.94 2220,1230.06 2266.06,1226C2300.44,1222.94 2325.88,1192.56 2322.81,1158.19C2319.75,1123.88 2289.38,1098.44 2255,1101.5C2212.81,1105.19 2167.38,1106.94 2118.5,1106.31C2084,1105.94 2055.69,1133.63 2055.31,1168.06C2054.88,1202.56 2082.56,1230.94 2117.06,1231.31Z" style="fill:rgb(52,123,250);"/>
        <path d="M2471.5,1187.69C2533.38,1168.75 2585.63,1144.5 2629.38,1116.69C2658.44,1098.13 2667.06,1059.5 2648.5,1030.38C2630,1001.31 2591.31,992.688 2562.19,1011.25C2527,1033.63 2484.81,1052.88 2434.94,1068.13C2402,1078.25 2383.38,1113.19 2393.5,1146.19C2403.56,1179.19 2438.56,1197.75 2471.5,1187.69Z" style="fill:rgb(52,123,250);"/>
        <path d="M2789.63,941.75C2819.13,880.75 2830.44,816.25 2827.56,754.063C2825.94,719.563 2796.63,692.938 2762.19,694.563C2727.75,696.188 2701.06,725.438 2702.69,759.875C2704.69,802.125 2697.06,845.938 2677.06,887.375C2662.06,918.438 2675.06,955.875 2706.13,970.875C2737.19,985.875 2774.63,972.813 2789.63,941.75Z" style="fill:rgb(52,123,250);"/>
        <path d="M2749.81,533.063C2704.25,471.5 2642.44,428.625 2575.06,414.813C2541.25,407.938 2508.19,429.688 2501.25,463.5C2494.38,497.313 2516.19,530.375 2549.94,537.313C2588.81,545.25 2623.06,571.938 2649.38,607.5C2669.94,635.188 2709.13,641 2736.81,620.5C2764.56,599.938 2770.38,560.75 2749.81,533.063Z" style="fill:rgb(52,123,250);"/>
        <path d="M1933.31,426.938C2000.94,44 2587,68.75 2245.81,426.938L1933.31,426.938Z" style="fill:rgb(202,220,240);"/>
        <path d="M1933.31,523.938C2000.94,906.813 2587,882.125 2245.81,523.938L1933.31,523.938Z" style="fill:rgb(202,220,240);"/>
        <path d="M1927.69,538.563L2346.19,538.563C2380.69,538.563 2408.69,510.563 2408.69,476.063C2408.69,441.563 2380.69,413.563 2346.19,413.563L1927.69,413.563C1893.25,413.563 1865.19,441.563 1865.19,476.063C1865.19,510.563 1893.25,538.563 1927.69,538.563Z" style="fill:rgb(52,123,250);"/>
    </g>
</svg>
